<svg width="111" height="108" viewBox="0 0 111 108" fill="none" xmlns="http://www.w3.org/2000/svg">
<g clip-path="url(#clip0)">
<path d="M57.55 0H64.975C64.975 3.3375 64.975 6.6625 64.975 10C77.4875 10 90 10.025 102.513 9.9625C104.625 10.05 106.95 9.9 108.787 11.1625C110.075 13.0125 109.925 15.3625 110.013 17.4875C109.95 39.1875 109.975 60.875 109.987 82.5625C109.925 86.2 110.325 89.9125 109.562 93.5C109.062 96.1 105.938 96.1625 103.85 96.25C90.9 96.2875 77.9375 96.225 64.975 96.25C64.975 100 64.975 103.75 64.975 107.5H57.2125C38.1625 104.037 19.075 100.838 0 97.5C0 68.3375 0 39.175 0 10.0125C19.1875 6.675 38.375 3.3875 57.55 0Z" fill="white"/>
<path d="M64.975 13.75C78.725 13.75 92.475 13.75 106.225 13.75C106.225 40 106.225 66.25 106.225 92.5C92.475 92.5 78.725 92.5 64.975 92.5C64.975 90 64.975 87.5 64.975 85C68.3125 85 71.6375 85 74.975 85C74.975 82.0875 74.975 79.1625 74.975 76.25C71.6375 76.25 68.3125 76.25 64.975 76.25C64.975 74.5875 64.975 72.9125 64.975 71.25C68.3125 71.25 71.6375 71.25 74.975 71.25C74.975 68.3375 74.975 65.4125 74.975 62.5C71.6375 62.5 68.3125 62.5 64.975 62.5C64.975 60.8375 64.975 59.1625 64.975 57.5C68.3125 57.5 71.6375 57.5 74.975 57.5C74.975 54.5875 74.975 51.6625 74.975 48.75C71.6375 48.75 68.3125 48.75 64.975 48.75C64.975 47.0875 64.975 45.4125 64.975 43.75C68.3125 43.75 71.6375 43.75 74.975 43.75C74.975 40.8375 74.975 37.9125 74.975 35C71.6375 35 68.3125 35 64.975 35C64.975 33.3375 64.975 31.6625 64.975 30C68.3125 30 71.6375 30 74.975 30C74.975 27.0875 74.975 24.1625 74.975 21.25C71.6375 21.25 68.3125 21.25 64.975 21.25C64.975 18.75 64.975 16.25 64.975 13.75V13.75Z" fill="#207245"/>
<path d="M79.975 21.25C85.8125 21.25 91.6375 21.25 97.475 21.25C97.475 24.1625 97.475 27.0875 97.475 30C91.6375 30 85.8125 30 79.975 30C79.975 27.0875 79.975 24.1625 79.975 21.25V21.25Z" fill="white"/>
<path d="M37.025 32.9625C39.85 32.7625 42.6875 32.5875 45.525 32.45C42.1875 39.2875 38.8375 46.125 35.4375 52.9375C38.875 59.9375 42.3875 66.8875 45.8375 73.8875C42.825 73.7125 39.825 73.525 36.8125 73.3125C34.6875 68.1 32.1 63.0625 30.575 57.6125C28.875 62.6875 26.45 67.475 24.5 72.45C21.7625 72.4125 19.025 72.3 16.2875 72.1875C19.5 65.9 22.6 59.5625 25.9125 53.3125C23.1 46.875 20.0125 40.5625 17.1125 34.1625C19.8625 34 22.6125 33.8375 25.3625 33.6875C27.225 38.575 29.2625 43.4 30.8 48.4125C32.45 43.1 34.9125 38.1 37.025 32.9625V32.9625Z" fill="#207245"/>
<path d="M79.975 35C85.8125 35 91.6375 35 97.475 35C97.475 37.9125 97.475 40.8375 97.475 43.75C91.6375 43.75 85.8125 43.75 79.975 43.75C79.975 40.8375 79.975 37.9125 79.975 35V35Z" fill="white"/>
<path d="M79.975 48.75C85.8125 48.75 91.6375 48.75 97.475 48.75C97.475 51.6625 97.475 54.5875 97.475 57.5C91.6375 57.5 85.8125 57.5 79.975 57.5C79.975 54.5875 79.975 51.6625 79.975 48.75V48.75Z" fill="white"/>
<path d="M79.975 62.5C85.8125 62.5 91.6375 62.5 97.475 62.5C97.475 65.4125 97.475 68.3375 97.475 71.25C91.6375 71.25 85.8125 71.25 79.975 71.25C79.975 68.3375 79.975 65.4125 79.975 62.5V62.5Z" fill="white"/>
<path d="M79.975 76.25C85.8125 76.25 91.6375 76.25 97.475 76.25C97.475 79.1625 97.475 82.0875 97.475 85C91.6375 85 85.8125 85 79.975 85C79.975 82.0875 79.975 79.1625 79.975 76.25V76.25Z" fill="white"/>
</g>
<defs>
<clipPath id="clip0">
<rect width="110.038" height="107.5" fill="white"/>
</clipPath>
</defs>
</svg>
